<svg width="512" height="512" viewBox="0 0 512 512" fill="none" xmlns="http://www.w3.org/2000/svg">
<g clip-path="url(#clip0_2625_174)">
<rect width="512" height="512" fill="#E8E8E8" style="fill:#E8E8E8;fill:color(display-p3 0.9098 0.9098 0.9098);fill-opacity:1;"/>
<path d="M428 256.198C428 269.811 426.384 283.052 423.343 295.749C423.3 295.93 423.255 296.11 423.212 296.291C423.128 296.636 423.045 296.981 422.959 297.325C415.497 327.468 399.946 355.298 377.622 377.622C345.366 409.878 301.617 428 256 428C255.781 428 255.562 427.996 255.344 427.995C255.117 427.996 254.89 428 254.663 428C161.23 428 84.0849 352.394 84.001 259H84.0293C84.0119 258.001 84 257.001 84 256H164C164 306.81 205.19 348 256 348C306.81 348 348 306.81 348 256V-153H428V256.198Z" fill="white" style="fill:white;fill-opacity:1;"/>
<circle cx="256" cy="256" r="92" fill="#E90038" style="fill:#E90038;fill:color(display-p3 0.9121 0.0000 0.2183);fill-opacity:1;"/>
</g>
<defs>
<clipPath id="clip0_2625_174">
<rect width="512" height="512" fill="white" style="fill:white;fill-opacity:1;"/>
</clipPath>
</defs>
</svg>
